<svg xmlns="http://www.w3.org/2000/svg" viewBox="0 0 348 284"><path fill="#d1ccc0" d="M153.5 42.115C111.142 46.091 78.936 66.099 62.742 98.5c-23.32 46.66 4.999 84.26 77.496 102.894 21.478 5.521 50.482 7.495 76.262 5.191l6-.537-6 1.393c-25.759 5.979-65.375 5.767-92.226-.494-9.89-2.306-10.363-2.135-7.73 2.792 15.592 29.174 71.489 39.057 112.1 19.82 36.571-17.324 54.191-49.76 40.261-74.113-17.272-30.195-50.987-44.449-105.405-44.562-20.166-.041-20.762-.098-15-1.429 18.388-4.246 35.046-5.156 52-2.839l4 .547-3.775-2.635c-5.673-3.959-16.42-8.537-23.725-10.108l-6.5-1.397 6.702.512c20.502 1.564 51.362 11.571 70.769 22.948 4.237 2.484 8.115 4.498 8.617 4.475 1.391-.065 4.914-6.056 7.795-13.258 15.06-37.644-6.174-59.491-63.383-65.209-15.719-1.572-33.28-1.711-47.5-.376" fill-rule="evenodd"/></svg>